<svg width="18" height="14" viewBox="0 0 18 14" fill="none" xmlns="http://www.w3.org/2000/svg">
<path d="M17 5H18V0H0V5H1C1.53043 5 2.03914 5.21071 2.41421 5.58579C2.78929 5.96086 3 6.46957 3 7C3 7.53043 2.78929 8.03914 2.41421 8.41421C2.03914 8.78929 1.53043 9 1 9H0V14H18V9H17C16.4696 9 15.9609 8.78929 15.5858 8.41421C15.2107 8.03914 15 7.53043 15 7C15 6.46957 15.2107 5.96086 15.5858 5.58579C15.9609 5.21071 16.4696 5 17 5ZM16 10.874V12H2V10.874C2.85953 10.653 3.62115 10.1524 4.16498 9.4511C4.7088 8.74976 5.00395 7.88748 5.00395 7C5.00395 6.11252 4.7088 5.25024 4.16498 4.5489C3.62115 3.84756 2.85953 3.347 2 3.126V2H16V3.126C15.1405 3.347 14.3788 3.84756 13.835 4.5489C13.2912 5.25024 12.9961 6.11252 12.9961 7C12.9961 7.88748 13.2912 8.74976 13.835 9.4511C14.3788 10.1524 15.1405 10.653 16 10.874Z" fill="white"/>
</svg>
